<svg width="7317" height="1854" viewBox="0 0 7317 1854" fill="none" xmlns="http://www.w3.org/2000/svg">
<path fill-rule="evenodd" clip-rule="evenodd" d="M335.958 2.86721H1511.87C1600.98 2.8672 1686.44 38.3202 1749.46 101.43C1812.49 164.54 1847.91 250.14 1847.94 339.405V1517.45C1847.91 1606.6 1812.58 1692.1 1749.7 1755.19C1686.82 1818.29 1601.53 1853.82 1512.53 1853.99H335.958C246.846 1853.96 161.394 1818.48 98.3932 1755.35C35.392 1692.22 -4.80857e-06 1606.61 0 1517.34L0 339.405C-2.38276e-06 295.201 8.69347 251.43 25.5839 210.592C42.4742 169.754 67.2306 132.65 98.4389 101.398C129.647 70.1459 166.696 45.359 207.469 28.4529C248.242 11.5468 291.941 2.85268 336.069 2.86721H335.958Z" fill="url(#paint0_linear)"/>
<path fill-rule="evenodd" clip-rule="evenodd" d="M1161.34 450.442C1114.75 496.67 1068.38 540.908 1022.56 588.132C1011.52 609.034 1009.42 629.273 1025.32 647.742C1093.33 727.148 1166.41 783.551 1230.89 868.93C1267.54 917.813 1265.23 997.662 1230.89 1046.65C1169.95 1134.25 1085.82 1203.03 1010.08 1277.91L936.112 1345.15C844.146 1239.53 896.477 1178.59 975.858 1093.33L1053.91 1015.36C1099.51 972.114 1106.02 959.064 1062.19 910.403C998.159 846.037 852.426 730.356 852.426 634.913C852.426 518.347 921.981 465.151 998.932 387.072L1166.19 233.346C1255.29 297.49 1218.3 381.984 1161.34 450.442Z" fill="url(#paint1_linear)"/>
<path d="M655.908 923.909C692.127 923.909 721.488 894.497 721.488 858.216C721.488 821.935 692.127 792.523 655.908 792.523C619.689 792.523 590.328 821.935 590.328 858.216C590.328 894.497 619.689 923.909 655.908 923.909Z" fill="#F90005"/>
<path fill-rule="evenodd" clip-rule="evenodd" d="M934.566 839.641C1003.24 911.527 966.252 969.699 912.486 1034.4C871.305 1076.64 827.585 1118.45 788.723 1162.69C766.643 1188.23 752.29 1216.43 780.112 1244.97C837.08 1303.14 892.503 1355.56 945.717 1417.27C979.611 1477.44 970.116 1523.11 926.176 1575.53C834.651 1488.5 747.101 1401.24 658.447 1311.32C636.379 1285.2 623.372 1252.61 621.381 1218.45C619.39 1184.28 628.523 1150.39 647.407 1121.88C742.354 1019.36 830.897 933.867 933.683 839.641H934.566Z" fill="url(#paint2_linear)"/>
<path d="M655.798 1623.64C692.016 1623.64 721.377 1594.23 721.377 1557.95C721.377 1521.67 692.016 1492.26 655.798 1492.26C619.579 1492.26 590.218 1521.67 590.218 1557.95C590.218 1594.23 619.579 1623.64 655.798 1623.64Z" fill="#0072EF"/>
<path d="M2630.15 1309.54H2831.3L2504.62 895.809L2813.19 563.252H2621.64L2291.76 911.955V563.363H2120.41V1309.65H2291.76V1120.87L2391.78 1016.47L2630.15 1309.65V1309.54ZM3016.56 811.868V736H2857.69V1309.54H3023.29V1038.81C3023.29 928.987 3083.9 878.888 3175.43 878.888C3188.24 878.888 3198.83 879.994 3212.75 880.989V727.484C3124.42 727.484 3056.3 756.239 3015.79 811.646L3016.56 811.868ZM3567.58 1184.9C3493.17 1184.9 3439.96 1156.15 3415.45 1099.63L3838.62 1017.46C3837.52 834.097 3704.48 727.484 3542.74 727.484C3366.1 727.484 3236.26 851.239 3236.26 1022.77C3236.26 1194.3 3365.1 1318.06 3563.06 1318.06C3666.17 1318.06 3745.99 1286.1 3799.21 1225.38L3710.89 1129.38C3691.97 1147.89 3669.49 1162.34 3644.81 1171.85C3620.14 1181.36 3593.78 1185.72 3567.36 1184.68L3567.58 1184.9ZM3543.07 853.119C3612.3 853.119 3662.31 892.491 3678.32 951.216L3399.44 1005.52C3402.64 908.527 3460.16 853.119 3542.96 853.119H3543.07ZM4337.98 735.779V796.606C4296.47 749.714 4236.85 727.263 4166.63 727.263C4004.89 727.263 3880.36 842.392 3880.36 1022.55C3880.36 1202.71 4004.89 1317.84 4166.63 1317.84C4243.25 1317.84 4303.86 1293.28 4345.38 1243.18V1309.54H4504.03V736L4337.98 735.779ZM4195.34 1181.69C4112.31 1181.69 4048.5 1121.97 4048.5 1022.77C4048.5 923.568 4112.31 863.957 4195.34 863.957C4278.36 863.957 4341.18 923.678 4341.18 1022.77C4341.18 1121.86 4276.82 1181.69 4195.34 1181.69ZM4930.52 1164.55C4910.58 1178.6 4886.77 1186.06 4862.4 1185.9C4817.68 1185.9 4792.18 1159.24 4792.18 1110.25V876.786H4933.72V748.829H4791.52V609.149H4625.91V1112.35C4625.91 1248.82 4703.19 1318.06 4839.87 1318.06C4889.78 1318.06 4939.9 1306.33 4973.9 1281.78L4930.29 1164.55H4930.52ZM5310.19 1184.79C5235.67 1184.79 5182.46 1156.04 5158.06 1099.52L5581.12 1017.46C5580.13 834.097 5447.09 727.484 5285.24 727.484C5108.6 727.484 4978.76 851.239 4978.76 1022.77C4978.76 1194.3 5107.6 1318.06 5305.45 1318.06C5408.67 1318.06 5488.5 1286.1 5541.71 1225.38L5453.39 1129.38C5434.49 1147.91 5412.01 1162.37 5387.32 1171.88C5362.64 1181.39 5336.28 1185.74 5309.86 1184.68L5310.19 1184.79ZM5285.68 853.009C5354.91 853.009 5404.92 892.38 5420.93 951.106L5142.05 1005.41C5145.25 908.416 5202.77 853.009 5285.57 853.009H5285.68Z" fill="#0072EF"/>
<path d="M5887.6 1316.06C6078.05 1316.06 6165.38 1222.28 6165.38 1112.46C6165.38 840.62 5706.65 964.265 5706.65 759.666C5706.65 685.015 5767.37 624.188 5903.61 624.188C5976.13 624.911 6046.96 646.234 6107.86 685.678L6134.47 622.861C6074.85 581.277 5987.63 556.504 5903.61 556.504C5714.16 556.504 5629.04 651.394 5629.04 761.214C5629.04 1037.7 6087.66 911.511 6087.66 1116.22C6087.66 1189.77 6027.04 1248.93 5887.6 1248.93C5789.68 1248.93 5694.95 1210.56 5641.74 1158.25L5610.93 1219.07C5666.13 1276.58 5775.88 1316.06 5887.6 1316.06ZM6493.17 1247.83C6388.84 1247.83 6310.12 1192.53 6282.52 1101.84L6742.24 1012.26C6736.83 854.445 6624.22 744.625 6474.07 744.625C6313.32 744.625 6197.4 862.96 6197.4 1029.18C6197.4 1195.41 6317.63 1314.96 6491.73 1314.96C6580.06 1314.96 6656.68 1283 6706.69 1223.28L6664.07 1174.17C6622.56 1223.28 6561.95 1247.72 6492.73 1247.72L6493.17 1247.83ZM6474.07 809.654C6520.21 808.412 6565.23 824.069 6600.67 853.692C6636.12 883.315 6659.56 924.87 6666.61 970.569L6271.81 1047.32C6270.96 1039.54 6270.63 1031.7 6270.82 1023.88C6270.82 897.023 6354.83 809.654 6474.07 809.654ZM6987.11 1314.96C7010.27 1314.77 7033.24 1310.81 7055.12 1303.24L7049.82 1240.31C7033.59 1246.87 7016.21 1250.14 6998.71 1249.93C6936 1249.93 6905.08 1213.65 6905.08 1147.52V518.57H6829.57V1153.93C6829.57 1254.13 6884.77 1314.96 6987 1314.96H6987.11ZM7248.99 1314.96C7272.18 1314.76 7295.18 1310.8 7317.11 1303.24L7311.7 1240.31C7295.46 1246.87 7278.09 1250.14 7260.58 1249.93C7197.88 1249.93 7166.96 1213.65 7166.96 1147.52V518.57H7091.45V1153.93C7091.45 1254.13 7146.65 1314.96 7248.88 1314.96H7248.99Z" fill="#00B140"/>
<path d="M1795.71 1690.54L175.321 109.046C162.21 95.9761 151.054 81.0761 142.2 64.8082C195.326 25.9753 258.58 3.45819 324.255 0L1512.53 0C1707.83 1.21654 1847.83 163.237 1847.83 325.921V1488.93C1851.72 1559.9 1833.55 1630.34 1795.83 1690.54H1795.71Z" fill="#E6E7E8" fill-opacity="0.3"/>
<defs>
<linearGradient id="paint0_linear" x1="977.873" y1="923.066" x2="-462.709" y2="2633.94" gradientUnits="userSpaceOnUse">
<stop stop-color="#FEFEFE"/>
<stop offset="1" stop-color="#E6E7E8"/>
</linearGradient>
<linearGradient id="paint1_linear" x1="1054.77" y1="367.552" x2="1081.22" y2="1440.78" gradientUnits="userSpaceOnUse">
<stop stop-color="#00B140"/>
<stop offset="1" stop-color="#03890C"/>
</linearGradient>
<linearGradient id="paint2_linear" x1="809.7" y1="861.787" x2="795.049" y2="1854.98" gradientUnits="userSpaceOnUse">
<stop stop-color="#0072EF"/>
<stop offset="1" stop-color="#383086"/>
</linearGradient>
</defs>
</svg>
